<svg width="43" height="35" viewBox="0 0 43 35" fill="none" xmlns="http://www.w3.org/2000/svg">
<path d="M17.0996 4.83496C17.5835 4.83498 18.0478 4.64398 18.3916 4.30347C18.7354 3.96297 18.9309 3.50051 18.9355 3.01665C18.9402 2.53248 18.7535 2.06605 18.416 1.71889C18.0785 1.37174 17.6175 1.17197 17.1334 1.16309M16.941 8.48921C16.4571 8.48923 15.9927 8.29823 15.6489 7.95772C15.3051 7.61722 15.1097 7.15476 15.105 6.6709C15.1003 6.18673 15.287 5.7203 15.6245 5.37314C15.9621 5.02599 16.4231 4.82622 16.9072 4.81734M17.0996 12.1611C17.5835 12.1611 18.0478 11.9701 18.3916 11.6296C18.7354 11.2891 18.9309 10.8266 18.9355 10.3428C18.9402 9.85861 18.7535 9.39217 18.416 9.04502C18.0785 8.69786 17.6175 8.4981 17.1334 8.48921M24.4433 4.83496C24.9272 4.83498 25.3915 4.64398 25.7353 4.30347C26.0791 3.96297 26.2746 3.50051 26.2793 3.01665C26.284 2.53248 26.0973 2.06605 25.7597 1.71889C25.4222 1.37174 24.9612 1.17197 24.4771 1.16309M24.2847 8.48921C23.8008 8.48923 23.3365 8.29823 22.9927 7.95772C22.6489 7.61722 22.4534 7.15476 22.4488 6.6709C22.444 6.18673 22.6308 5.7203 22.9683 5.37314C23.3058 5.02599 23.7668 4.82622 24.2509 4.81734M24.4433 12.1611C24.9272 12.1611 25.3915 11.9701 25.7353 11.6296C26.0791 11.2891 26.2746 10.8266 26.2793 10.3428C26.284 9.85861 26.0973 9.39217 25.7597 9.04502C25.4222 8.69786 24.9612 8.4981 24.4771 8.48921M10.3242 4.83496C10.8081 4.83498 11.2724 4.64398 11.6162 4.30347C11.9601 3.96297 12.1555 3.50051 12.1602 3.01665C12.1649 2.53273 11.9784 2.06651 11.6412 1.7194C11.304 1.37229 10.8433 1.17235 10.3595 1.16309M10.1671 8.48921C9.6832 8.48923 9.21887 8.29823 8.87507 7.95772C8.53127 7.61722 8.33579 7.15476 8.33114 6.6709C8.32641 6.18698 8.51293 5.72076 8.85014 5.37365C9.18735 5.02654 9.64798 4.8266 10.1318 4.81734M10.3242 12.1611C10.8081 12.1611 11.2724 11.9701 11.6162 11.6296C11.9601 11.2891 12.1555 10.8266 12.1602 10.3428C12.1649 9.85886 11.9784 9.39264 11.6412 9.04553C11.304 8.69841 10.8433 8.49848 10.3595 8.48921" stroke="#FAA41A" stroke-linecap="round" stroke-linejoin="round"/>
<path d="M11.0396 33.8368H24.2554V29.4658C21.4398 30.7084 19.7992 30.9023 17.5167 30.9493C14.663 31.008 12.7286 30.5145 11.0396 30.0915V33.8368Z" stroke="#383747" stroke-linecap="round" stroke-linejoin="round"/>
<path d="M34.281 18.0127C31.8135 27.2276 22.3826 32.6958 13.1677 30.2268C10.2433 29.446 7.57652 27.9079 5.43624 25.7676C3.29596 23.6274 1.75786 20.9606 0.977051 18.0362L34.281 18.0127Z" fill="#FAA41A" stroke="#383747" stroke-linecap="round" stroke-linejoin="round"/>
<path d="M0.968262 15.0679H34.2868V18.092H0.968262V15.0679Z" stroke="#383747" stroke-linecap="round" stroke-linejoin="round"/>
<path d="M22.4897 15.0589C33.946 15.5113 31.0658 7.34795 39.5331 6.61064C40.3703 6.5372 40.8109 6.52105 41.9859 6.59595L42.03 6.58127C40.5686 5.71177 37.8749 4.24008 35.6262 4.8643C34.4762 5.18448 32.6843 6.42117 31.4844 8.77852C28.4632 15.3938 25.5212 15.0457 23.1272 15.0574L22.4897 15.0589Z" stroke="#383747" stroke-linecap="round" stroke-linejoin="round"/>
<path d="M29.5398 20.6079C28.4999 23.7804 25.7166 25.9835 22.4854 26.5828" stroke="white" stroke-linecap="round" stroke-linejoin="round"/>
</svg>
