<svg width="16" height="18" viewBox="0 0 16 18" fill="none" xmlns="http://www.w3.org/2000/svg">
<path d="M14.4 0.566895H5.6C5.30826 0.566895 5.02847 0.694828 4.82218 0.922551C4.61589 1.15027 4.5 1.45913 4.5 1.78118H14.4V16.3526H5.6V10.4026H4.5V16.3526C4.5 16.6747 4.61589 16.9835 4.82218 17.2112C5.02847 17.439 5.30826 17.5669 5.6 17.5669H14.4C14.6917 17.5669 14.9715 17.439 15.1778 17.2112C15.3841 16.9835 15.5 16.6747 15.5 16.3526V1.78118C15.5 1.45913 15.3841 1.15027 15.1778 0.922551C14.9715 0.694828 14.6917 0.566895 14.4 0.566895Z" fill="#1D1D1D"/>
<path d="M8.02795 11.4103C7.96293 11.4692 7.91012 11.5417 7.87284 11.6233C7.83556 11.7048 7.81461 11.7936 7.81131 11.8842C7.808 11.9747 7.82241 12.065 7.85364 12.1493C7.88487 12.2337 7.93223 12.3103 7.99276 12.3744C8.05329 12.4384 8.12568 12.4886 8.20539 12.5216C8.28509 12.5546 8.37039 12.5699 8.45593 12.5664C8.54147 12.5629 8.62541 12.5407 8.70247 12.5013C8.77952 12.4618 8.84805 12.4059 8.90373 12.3371L12.5 8.53104L8.90994 4.72496C8.79112 4.61727 8.63828 4.56099 8.48195 4.56738C8.32563 4.57378 8.17735 4.64236 8.06673 4.75943C7.95611 4.8765 7.89131 5.03344 7.88527 5.19888C7.87923 5.36432 7.93241 5.52608 8.03416 5.65183L10.1273 7.8211H1.12112C0.956387 7.8211 0.798403 7.89035 0.681921 8.01363C0.565439 8.13691 0.5 8.30411 0.5 8.47845C0.5 8.65279 0.565439 8.81999 0.681921 8.94327C0.798403 9.06655 0.956387 9.13581 1.12112 9.13581H10.1273L8.02795 11.4103Z" fill="#1D1D1D"/>
</svg>
