<svg width="20" height="20" viewBox="0 0 20 20" fill="none" xmlns="http://www.w3.org/2000/svg">
<path d="M19.2836 6.81802L13.3328 5.95317L10.6727 0.560202C10.6 0.412545 10.4805 0.293014 10.3328 0.220358C9.9625 0.0375452 9.5125 0.189889 9.32734 0.560202L6.66719 5.95317L0.716405 6.81802C0.552342 6.84145 0.402342 6.9188 0.287498 7.03599C0.148658 7.17869 0.0721514 7.37067 0.0747883 7.56976C0.0774251 7.76884 0.15899 7.95873 0.301561 8.09771L4.60703 12.2954L3.58984 18.2227C3.56599 18.3606 3.58125 18.5024 3.63389 18.6321C3.68653 18.7617 3.77444 18.874 3.88766 18.9562C4.00088 19.0385 4.13487 19.0873 4.27445 19.0973C4.41403 19.1072 4.5536 19.0779 4.67734 19.0126L10 16.2141L15.3227 19.0126C15.468 19.0899 15.6367 19.1157 15.7984 19.0876C16.2063 19.0172 16.4805 18.6305 16.4102 18.2227L15.393 12.2954L19.6984 8.09771C19.8156 7.98286 19.893 7.83286 19.9164 7.6688C19.9797 7.25864 19.6938 6.87895 19.2836 6.81802Z" fill="#FFCB45"/>
</svg>
