<svg width="23" height="19" viewBox="0 0 23 19" fill="none" xmlns="http://www.w3.org/2000/svg">
<path d="M22.853 2.50251C22.018 2.87251 21.121 3.12251 20.178 3.23551C21.151 2.6533 21.8789 1.73697 22.226 0.657507C21.3118 1.2005 20.3113 1.5827 19.268 1.78751C18.5664 1.03837 17.637 0.541833 16.6243 0.374981C15.6116 0.208129 14.5721 0.380298 13.6672 0.864759C12.7624 1.34922 12.0427 2.11887 11.6201 3.05421C11.1975 3.98955 11.0955 5.03826 11.33 6.03751C9.47766 5.9445 7.6656 5.46306 6.0114 4.62441C4.35719 3.78577 2.89781 2.60867 1.72797 1.16951C1.32797 1.85951 1.09797 2.65951 1.09797 3.51151C1.09753 4.2785 1.28641 5.03375 1.64785 5.71024C2.0093 6.38673 2.53213 6.96354 3.16997 7.38951C2.43025 7.36597 1.70685 7.16609 1.05997 6.80651V6.86651C1.0599 7.94225 1.43201 8.98488 2.11316 9.8175C2.79431 10.6501 3.74254 11.2214 4.79697 11.4345C4.11076 11.6202 3.39131 11.6476 2.69297 11.5145C2.99047 12.4401 3.56997 13.2495 4.35034 13.8294C5.13071 14.4093 6.07289 14.7307 7.04497 14.7485C5.39481 16.0439 3.35686 16.7466 1.25897 16.7435C0.887354 16.7436 0.516049 16.7219 0.146973 16.6785C2.27645 18.0477 4.75531 18.7743 7.28697 18.7715C15.857 18.7715 20.542 11.6735 20.542 5.51751C20.542 5.31751 20.537 5.11551 20.528 4.91551C21.4393 4.25648 22.2259 3.4404 22.851 2.50551L22.853 2.50251Z" fill="#1D1D1D"/>
</svg>
